<svg width="550" height="550" viewBox="0 0 550 550" fill="none" xmlns="http://www.w3.org/2000/svg">
<circle cx="275" cy="275" r="275" fill="url(#paint0_linear_80_10)"/>
<circle cx="275" cy="275" r="245" stroke="white" stroke-width="10"/>
<path d="M116.124 348L115.366 334.36L138.857 328.677C139.109 326.909 139.236 324.636 139.236 321.857C139.488 319.079 139.741 315.038 139.994 309.733C140.246 304.429 140.372 297.23 140.372 288.137L140.751 258.585C141.004 253.28 140.878 247.85 140.372 242.293C140.12 236.736 139.741 231.558 139.236 226.759C138.731 221.707 138.225 217.666 137.72 214.635L113.472 209.33V196.827L164.242 182.809L170.683 188.871L168.788 209.33L169.925 209.709C177.755 199.858 185.838 192.786 194.173 188.492C202.761 184.198 211.475 182.051 220.316 182.051C229.156 182.051 237.744 184.45 246.08 189.25C254.415 194.049 261.235 201.374 266.539 211.225C272.096 221.075 274.875 233.705 274.875 249.113L275.253 289.274C275.253 298.367 275.38 306.576 275.632 313.901C276.137 320.973 276.769 325.899 277.527 328.677L300.259 334.36L299.123 348H225.241L224.105 334.36L244.943 328.677C245.196 326.656 245.448 324.131 245.701 321.1C245.953 318.069 246.08 314.28 246.08 309.733C246.332 304.934 246.459 298.998 246.459 291.926L246.08 250.249C246.08 239.388 244.312 230.674 240.775 224.106C237.492 217.539 233.072 212.74 227.515 209.709C221.958 206.678 216.022 205.163 209.707 205.163C201.877 205.163 194.552 207.057 187.732 210.846C180.912 214.635 174.85 220.57 169.546 228.653V285.485C169.546 297.104 169.672 306.576 169.925 313.901C170.43 320.973 170.935 325.899 171.441 328.677L193.794 334.36L192.658 348H116.124ZM329.812 348L328.675 334.36L350.271 328.677C350.524 326.656 350.65 324.131 350.65 321.1C350.903 318.069 351.156 314.28 351.408 309.733C351.661 304.934 351.787 298.998 351.787 291.926V250.628C351.787 239.514 349.893 230.674 346.104 224.106C342.315 217.539 337.516 212.74 331.706 209.709C326.15 206.678 320.466 205.163 314.657 205.163C306.069 205.163 298.112 207.31 290.787 211.603C283.462 215.897 276.895 222.465 271.086 231.305L263.887 217.287C272.728 205.163 282.073 196.322 291.924 190.765C302.028 184.956 312.636 182.051 323.75 182.051C334.359 182.051 343.957 184.577 352.545 189.628C361.133 194.68 367.953 202.005 373.004 211.603C378.056 221.202 380.582 232.821 380.582 246.46V289.274C380.582 298.367 380.708 306.576 380.961 313.901C381.466 320.973 381.971 325.899 382.476 328.677L405.967 334.36L405.209 348H329.812Z" fill="white"/>
<circle cx="446.82" cy="328.536" r="18.1799" fill="white"/>
<defs>
<linearGradient id="paint0_linear_80_10" x1="275" y1="0" x2="275" y2="550" gradientUnits="userSpaceOnUse">
<stop stop-color="#7DD1FF"/>
<stop offset="0.5" stop-color="#3B98F7"/>
<stop offset="1" stop-color="#1A6FFA"/>
</linearGradient>
</defs>
</svg>
